<svg width="183" height="70" viewBox="0 0 183 70" fill="none" xmlns="http://www.w3.org/2000/svg">
<path d="M51.0969 38.8668L51.1023 38.8667C52.2036 38.8518 53.2576 39.2181 54.0343 39.8717C54.8082 40.5231 55.2395 41.4015 55.2574 42.3091V65.3323C55.2395 66.2399 54.8082 67.1183 54.0343 67.7697C53.2576 68.4233 52.2036 68.7896 51.1023 68.7746V68.7746H51.0969H5.49168V68.7746L5.48625 68.7746C4.38502 68.7896 3.33095 68.4233 2.55432 67.7697C1.78044 67.1183 1.34909 66.2399 1.33115 65.3323V42.3091C1.34909 41.4015 1.78044 40.5231 2.55432 39.8717C3.33095 39.2181 4.38502 38.8518 5.48625 38.8667L5.48625 38.8668H5.49168L51.0969 38.8668Z" stroke="white" stroke-width="0.8"/>
<path d="M24.2554 43.6641C22.9228 43.8224 21.5797 44.5695 20.6659 45.6539C20.3094 46.0808 20.1363 46.3425 19.8975 46.8141C19.1775 48.2394 19.181 49.7886 19.9079 51.2311C20.1883 51.7888 20.4756 52.1813 20.9636 52.6701C21.7044 53.4103 22.4693 53.8682 23.4247 54.1471C24.0893 54.3398 24.0269 54.3364 28.2672 54.3364C32.6424 54.3364 32.5143 54.3433 33.2758 54.0954C35.4876 53.3759 36.9483 51.0177 36.7303 48.5183C36.5122 46.0464 34.9442 44.1805 32.6804 43.7088C32.4555 43.6606 31.912 43.6537 28.4575 43.6469C26.2769 43.64 24.3869 43.6503 24.2554 43.6641ZM25.7923 43.881C26.8203 44.1529 27.6268 44.6143 28.3848 45.3579C29.2052 46.1669 29.7798 47.2273 29.9632 48.2669C30.119 49.1517 29.9459 50.219 29.5098 51.0831C28.8106 52.4533 27.606 53.5033 26.1972 53.9612C25.6642 54.1367 25.2904 54.1987 24.7746 54.1987C23.7881 54.1987 22.7566 53.8544 21.8567 53.2244C21.4828 52.9628 20.7836 52.2777 20.5171 51.9196C19.8698 51.0349 19.4925 49.9608 19.4925 49.0002C19.4925 47.8745 20.0117 46.6179 20.8702 45.6608C21.732 44.7003 22.7566 44.0944 23.9577 43.8397C24.4354 43.7364 25.318 43.757 25.7923 43.881Z" fill="white"/>
<path d="M23.2374 46.1433C22.6628 46.429 22.2301 46.8835 21.9117 47.5376C21.6486 48.0746 21.5933 48.3294 21.5898 48.9835C21.5863 49.6239 21.6279 49.8339 21.8632 50.3331C22.1021 50.8426 22.3651 51.1868 22.7424 51.4932C22.9882 51.6929 23.3309 51.8926 23.5697 51.9752L23.7151 52.0269V49.0007C23.7151 46.0435 23.7151 45.9712 23.6493 45.9712C23.6112 45.9712 23.4278 46.0469 23.2374 46.1433Z" fill="white"/>
<path d="M25.8267 48.9833C25.8267 51.6031 25.8336 51.9956 25.8786 51.9956C25.9617 51.9956 26.2455 51.8717 26.4843 51.734C26.7785 51.5653 27.2251 51.1177 27.4327 50.7838C27.63 50.4636 27.8135 50.0333 27.8897 49.6856C27.9796 49.3 27.9727 48.6183 27.8758 48.2293C27.6924 47.4995 27.2112 46.7696 26.6435 46.3668C26.4289 46.2153 25.9513 45.9709 25.8717 45.9709C25.837 45.9709 25.8267 46.5596 25.8267 48.9833Z" fill="white"/>
<path d="M33.1687 56.2893C33.141 56.2997 32.9644 56.3341 32.7775 56.3651C32.4245 56.4236 32.3414 56.4753 32.5456 56.5097C32.7118 56.5338 32.7498 56.5648 32.7498 56.6646C32.7498 56.7128 32.6321 57.181 32.4833 57.7043C31.9053 59.7974 31.888 59.8801 32.0264 60.004C32.1683 60.1314 32.4349 60.0625 32.6806 59.8353C32.9125 59.6184 32.9991 59.5048 32.9783 59.4463C32.961 59.3981 32.9229 59.4222 32.7706 59.584C32.6287 59.7355 32.5664 59.7802 32.5041 59.7699C32.4279 59.7596 32.421 59.7458 32.4279 59.5874C32.4279 59.491 32.5041 59.1674 32.5941 58.8645C32.6841 58.5615 32.8087 58.1277 32.871 57.9005C32.9333 57.6733 33.0579 57.2361 33.1479 56.9262C33.3279 56.31 33.3279 56.2274 33.1687 56.2893Z" fill="white"/>
<path d="M36.7992 56.3031C36.7508 56.3203 36.5743 56.3548 36.4046 56.3754C36.0827 56.4236 36.0204 56.4649 36.1935 56.5235C36.3562 56.5785 36.3839 56.6061 36.3839 56.7231C36.3839 56.7851 36.2212 57.484 36.0204 58.2758C35.8197 59.0676 35.657 59.7527 35.657 59.7975C35.657 59.9111 35.8162 60.004 36.0897 60.0488C37.0519 60.2175 38.0869 59.3465 38.0869 58.3687C38.0869 57.8833 37.8065 57.5872 37.3531 57.5941C37.0623 57.5976 36.8546 57.6871 36.64 57.9074C36.55 58.0004 36.4877 58.0417 36.5016 58.0038C36.5154 57.9659 36.5812 57.7318 36.6504 57.4874C36.7162 57.2395 36.8166 56.8815 36.8719 56.6853C36.9931 56.2618 36.9862 56.2343 36.7992 56.3031ZM37.3358 57.8627C37.5088 57.935 37.5988 58.1346 37.5988 58.4445C37.5988 59.1227 37.135 59.794 36.5777 59.9283C36.4427 59.9593 36.19 59.9179 36.1035 59.8491L36.0308 59.7906L36.2073 59.1055C36.3977 58.355 36.4981 58.1518 36.7577 57.9728C37 57.8076 37.1385 57.7835 37.3358 57.8627Z" fill="white"/>
<path d="M30.8455 56.4716C30.0598 56.5921 29.3606 57.1153 29.0283 57.8314C28.8898 58.1275 28.8379 58.3616 28.8379 58.6955C28.8379 59.5287 29.4263 60.0898 30.2917 60.0829C30.8074 60.0795 31.2228 59.9039 31.6209 59.5252C31.8043 59.3462 31.8216 59.3187 31.7697 59.2877C31.7212 59.2601 31.6762 59.2842 31.5586 59.391C31.202 59.718 30.842 59.8592 30.4128 59.8385C30.1982 59.8316 30.0944 59.8075 29.9628 59.7387C29.6271 59.57 29.4263 59.1741 29.4263 58.6887C29.4263 58.3582 29.5059 58.0586 29.6894 57.6834C29.8936 57.2634 30.2328 56.9053 30.5859 56.7401C30.7936 56.6471 30.8628 56.6299 31.1051 56.6299C31.2574 56.6299 31.4374 56.6471 31.5066 56.6712C31.7489 56.7539 31.9185 57.0362 31.9185 57.3563C31.9185 57.4631 31.9324 57.5044 31.9635 57.4975C32.0085 57.4803 32.2197 56.5198 32.1851 56.4853C32.1747 56.475 32.1193 56.4991 32.0639 56.5404L31.9635 56.6162L31.7074 56.5473C31.3889 56.4612 31.0947 56.4337 30.8455 56.4716Z" fill="white"/>
<path d="M15.5915 56.5301C15.498 56.5646 15.5534 56.599 15.723 56.6196C15.8234 56.6334 15.9307 56.6678 15.9653 56.6988C16.0796 56.7987 16.1003 56.6954 15.5153 58.7713C15.3804 59.2499 15.2557 59.6699 15.2384 59.7009C15.1831 59.8041 15.0827 59.873 14.9338 59.9109C14.6188 59.9969 14.7919 60.0176 15.7473 60.0176C16.8584 60.0176 17.0384 59.99 17.523 59.7387C18.776 59.0881 19.0875 57.4287 18.0733 56.7815C17.7272 56.5611 17.5714 56.5336 16.5503 56.5232C16.0449 56.5198 15.6123 56.5232 15.5915 56.5301ZM17.4226 56.7539C17.4918 56.778 17.6199 56.8469 17.703 56.9054C18.0768 57.1705 18.1945 57.8728 17.9833 58.5716C17.7895 59.2223 17.3187 59.6836 16.7303 59.8076C16.4534 59.8661 15.993 59.8558 15.8996 59.7904C15.7923 59.7181 15.8026 59.632 15.9619 59.0536C16.038 58.7782 16.1938 58.2171 16.3115 57.8039C16.5711 56.8641 16.6022 56.7883 16.7372 56.7264C16.8618 56.6678 17.2218 56.6851 17.4226 56.7539Z" fill="white"/>
<path d="M19.5138 56.6813C19.3615 56.7984 19.3962 57.0325 19.5727 57.1082C19.7734 57.1908 19.9431 57.0738 19.9431 56.8534C19.9431 56.7364 19.8081 56.609 19.6835 56.609C19.6419 56.609 19.5658 56.64 19.5138 56.6813Z" fill="white"/>
<path d="M19.6584 57.5894C19.6514 57.5997 19.4749 57.6342 19.2672 57.6686C18.9003 57.7306 18.7376 57.8132 18.9799 57.8132C19.1392 57.8132 19.2292 57.882 19.2084 57.9888C19.198 58.0335 19.0872 58.4363 18.9592 58.8839C18.8346 59.3314 18.7307 59.7445 18.7307 59.8031C18.7307 60.1267 19.108 60.1542 19.4749 59.8513C19.6618 59.6998 19.8453 59.4588 19.8037 59.4175C19.7795 59.3934 19.7172 59.4347 19.5961 59.5621C19.3745 59.7927 19.1807 59.8444 19.1807 59.6757C19.1807 59.6137 19.4091 58.8116 19.6445 58.0439C19.7138 57.8201 19.7622 57.6204 19.7484 57.6032C19.7276 57.5688 19.6861 57.5619 19.6584 57.5894Z" fill="white"/>
<path d="M20.6525 57.611C20.5763 57.6317 20.3998 57.6661 20.2579 57.6902C19.9844 57.735 19.8806 57.8141 20.0917 57.8141C20.2094 57.8141 20.3236 57.883 20.3236 57.9553C20.3236 57.9932 20.1713 58.5337 19.9429 59.2945C19.846 59.625 19.756 59.9245 19.7456 59.9589C19.7317 60.014 19.7525 60.0209 19.9567 60.0106L20.1852 60.0003L20.3271 59.5871C20.4863 59.1258 20.5832 58.9193 20.7736 58.6404C21.1613 58.0723 21.6563 57.7281 21.774 57.9484C21.812 58.0207 21.7428 58.3443 21.5005 59.2016C21.4244 59.4735 21.3621 59.7386 21.3621 59.7903C21.3621 60.0106 21.5144 60.1139 21.7497 60.0485C21.9886 59.9865 22.4385 59.508 22.3832 59.3737C22.3624 59.3186 22.352 59.3255 22.2862 59.415C22.0336 59.7593 21.8466 59.8694 21.819 59.6835C21.812 59.6457 21.8916 59.3048 21.9955 58.9261C22.2274 58.0999 22.2655 57.9209 22.2378 57.8107C22.1166 57.3218 21.3171 57.6696 20.7252 58.4648C20.6386 58.5853 20.5659 58.6679 20.5659 58.6542C20.5659 58.6369 20.6352 58.3994 20.7182 58.124C20.8013 57.8486 20.8636 57.6145 20.8532 57.5973C20.8359 57.5697 20.8359 57.5697 20.6525 57.611Z" fill="white"/>
<path d="M23.7362 57.6098C23.2966 57.7131 22.8189 58.1193 22.5835 58.5979C22.4728 58.8182 22.4555 58.8905 22.4416 59.1556C22.4208 59.61 22.5212 59.851 22.7912 59.9853C22.9677 60.0782 23.2793 60.0851 23.5423 60.0059C23.7292 59.9508 24.1688 59.6513 24.2485 59.5274C24.29 59.4585 24.2485 59.4034 24.1862 59.4482C23.9473 59.6272 23.6842 59.7753 23.5493 59.8062C23.0958 59.9026 22.8327 59.6238 22.902 59.1211L22.9262 58.9524L23.12 58.9146C23.6358 58.8147 23.9958 58.6598 24.2415 58.4395C24.4077 58.2915 24.4769 58.1469 24.4769 57.9506C24.4769 57.6614 24.155 57.5134 23.7362 57.6098ZM23.9923 57.7785C24.1169 57.9024 24.0512 58.1951 23.8539 58.4016C23.7189 58.5428 23.2966 58.7597 23.0785 58.7975C22.9504 58.8182 22.947 58.8182 22.9712 58.739C23.0231 58.5462 23.2377 58.1572 23.3762 58.0023C23.5181 57.8439 23.7362 57.7131 23.8642 57.7096C23.8954 57.7096 23.9542 57.7406 23.9923 57.7785Z" fill="white"/>
<path d="M25.3316 57.6111C25.2797 57.6249 25.0962 57.6559 24.9266 57.68C24.7154 57.711 24.6151 57.7385 24.6151 57.7695C24.6151 57.797 24.6566 57.8142 24.7154 57.8142C24.7708 57.8142 24.8435 57.8418 24.8747 57.8728C24.9751 57.9726 24.9474 58.1206 24.4974 59.718L24.4143 60.021L24.622 60.0107L24.8297 60.0003L24.9924 59.5184C25.2139 58.8643 25.4873 58.3547 25.7539 58.1103L25.8612 58.007L25.9408 58.0828C26.1277 58.2549 26.325 58.131 26.3285 57.8383C26.3285 57.6834 26.3181 57.6559 26.235 57.6111C26.1485 57.5629 26.1346 57.5664 25.9789 57.6593C25.8058 57.7695 25.5462 58.0793 25.3316 58.4408C25.1862 58.6852 25.1724 58.6715 25.2727 58.3788C25.3939 58.038 25.4873 57.6352 25.4562 57.6077C25.4423 57.5939 25.3835 57.5939 25.3316 57.6111Z" fill="white"/>
<path d="M26.9001 57.6039C26.5124 57.7209 26.3255 58.0032 26.4155 58.3303C26.4397 58.4129 26.5713 58.6229 26.734 58.8398C27.0489 59.2495 27.1216 59.4113 27.0905 59.611C27.0524 59.8313 26.7686 59.9966 26.547 59.9312C26.3359 59.8623 26.1524 59.6041 26.1317 59.3321C26.1282 59.2598 26.104 59.2254 26.0694 59.2254C26.0244 59.2254 26.0036 59.3011 25.969 59.642C25.924 60.062 25.9344 60.1549 26.0174 60.0413C26.0624 59.9794 26.0798 59.9794 26.3913 60.031C26.734 60.0895 26.9347 60.0723 27.1389 59.969C27.3501 59.8554 27.5232 59.58 27.5232 59.3528C27.5232 59.1497 27.4228 58.9431 27.1632 58.6057C26.8586 58.2098 26.8309 58.1616 26.8309 58.0067C26.8309 57.776 27.0766 57.6521 27.3259 57.7588C27.4712 57.8173 27.5716 57.9619 27.627 58.1995C27.6893 58.4474 27.7481 58.4095 27.7966 58.079C27.8174 57.9241 27.8451 57.745 27.8589 57.6831C27.8728 57.597 27.8658 57.5729 27.8208 57.5729C27.7897 57.5729 27.7654 57.5867 27.7654 57.6073C27.7654 57.6934 27.6339 57.7037 27.3847 57.6383C27.1147 57.5695 27.0386 57.5626 26.9001 57.6039Z" fill="white"/>
<path d="M33.8226 57.6269C33.7188 57.651 33.5353 57.6819 33.4176 57.6957C33.2653 57.7095 33.1996 57.7336 33.1996 57.7646C33.1996 57.7955 33.2411 57.8128 33.3138 57.8128C33.3761 57.8128 33.4592 57.8334 33.4938 57.861C33.5595 57.9092 33.5595 57.9126 33.4972 58.1467C33.1061 59.5651 33.068 59.7923 33.1996 59.9541C33.2861 60.0643 33.4107 60.0884 33.6184 60.0367C33.9265 59.9576 34.3211 59.5857 34.6949 59.0349C34.771 58.9213 34.823 58.8593 34.8126 58.8972C34.8022 58.9351 34.7468 59.1244 34.688 59.3172C34.5668 59.7269 34.5599 59.8749 34.6499 59.9851C34.733 60.0884 34.9268 60.0884 35.1241 59.9885C35.3595 59.868 35.761 59.3964 35.6295 59.3964C35.6121 59.3964 35.5118 59.4825 35.4045 59.5892C35.1864 59.8061 35.0618 59.8336 35.041 59.6649C35.0341 59.6133 35.1483 59.1485 35.2902 58.6321C35.4356 58.1123 35.5533 57.6785 35.5533 57.6647C35.5533 57.651 35.4598 57.6406 35.3456 57.6406H35.1414L35.1033 57.7852C34.9441 58.4187 34.501 59.2105 34.1203 59.5616C33.833 59.8198 33.5803 59.8543 33.5803 59.6305C33.5803 59.5238 33.6219 59.362 33.9576 58.1226C34.0338 57.8472 34.0857 57.6131 34.0788 57.5993C34.058 57.5683 34.0684 57.5649 33.8226 57.6269Z" fill="white"/>
<path d="M40.0708 60.4716C39.9946 60.4888 39.8319 60.5129 39.7108 60.5267C39.4373 60.5577 39.3993 60.6162 39.6277 60.6609L39.7939 60.6919L39.7869 60.8537C39.7835 60.9432 39.697 61.3219 39.5931 61.6972C39.4858 62.069 39.3127 62.6818 39.2089 63.0605C38.9977 63.811 38.9701 64.0348 39.0843 64.1484C39.1604 64.2241 39.3058 64.2379 39.4477 64.1828C39.6693 64.1002 40.1435 63.6148 40.0431 63.5769C40.0085 63.5666 39.9358 63.6182 39.8389 63.718C39.6762 63.8971 39.5758 63.9521 39.51 63.9005C39.4373 63.842 39.4581 63.6836 39.6173 63.1397C39.9427 62.0311 40.365 60.5198 40.365 60.4681C40.365 60.4234 40.2612 60.4234 40.0708 60.4716Z" fill="white"/>
<path d="M40.6005 60.6708C40.4655 60.805 40.462 60.8153 40.4759 60.9875C40.4897 61.1321 40.514 61.1837 40.6005 61.2594C40.8878 61.5142 41.3101 61.3386 41.3101 60.9634C41.3101 60.8876 41.2928 60.7912 41.2685 60.7465C41.2062 60.6294 41.0262 60.533 40.8705 60.533C40.7597 60.533 40.7147 60.5571 40.6005 60.6708ZM41.1474 60.719C41.2962 60.867 41.3066 61.0288 41.1751 61.1837C40.9985 61.3937 40.6559 61.349 40.552 61.0976C40.4516 60.8567 40.6247 60.6019 40.8912 60.6019C41.002 60.6019 41.0539 60.626 41.1474 60.719Z" fill="white"/>
<path d="M40.7354 60.7296C40.7216 60.74 40.7112 60.8501 40.7112 60.9706C40.7112 61.1393 40.7216 61.1875 40.7631 61.1875C40.7977 61.1875 40.815 61.1531 40.815 61.0808C40.815 60.9982 40.8289 60.9775 40.8773 60.9878C40.9119 60.9947 40.9396 61.036 40.9466 61.0945C40.9535 61.1565 40.9777 61.1875 41.0227 61.1875C41.0781 61.1875 41.0816 61.1737 41.0539 61.0636C41.0296 60.9809 41.0296 60.9293 41.0573 60.8983C41.1058 60.8363 41.0677 60.7503 40.9777 60.7262C40.8739 60.6986 40.7631 60.7021 40.7354 60.7296ZM40.9881 60.8467C40.9881 60.8983 40.8843 60.9259 40.8427 60.8845C40.8219 60.8639 40.8185 60.8329 40.8289 60.8157C40.8531 60.7744 40.9881 60.8019 40.9881 60.8467Z" fill="white"/>
<path d="M15.6742 60.6935C15.6327 60.7348 15.6881 60.7761 15.7885 60.7761C15.9477 60.7761 16.0619 60.8347 16.0861 60.9311C16.1069 61.0171 16.0031 61.4165 15.5081 63.1688C15.4146 63.5096 15.3073 63.8332 15.2762 63.8918C15.2312 63.9641 15.1689 64.0088 15.0616 64.0398C14.975 64.0673 14.885 64.0949 14.8573 64.1018C14.8227 64.1121 14.8193 64.1293 14.8435 64.1534C14.892 64.2016 16.3146 64.1775 16.3319 64.1293C16.3388 64.1052 16.2765 64.0811 16.1796 64.0673C16.0861 64.057 15.9754 64.0226 15.9304 63.9916C15.8265 63.9159 15.8369 63.8332 16.0619 63.0483C16.1554 62.7178 16.3146 62.1601 16.4115 61.8089C16.6677 60.8966 16.7023 60.8347 16.9792 60.7796C17.0346 60.7658 17.0865 60.7383 17.0969 60.7142C17.1073 60.6832 16.9446 60.6729 16.4046 60.6729C16.0135 60.6729 15.6846 60.6832 15.6742 60.6935Z" fill="white"/>
<path d="M31.5137 60.768C31.4133 60.7817 31.2957 60.9332 31.2957 61.0399C31.2957 61.2431 31.6003 61.367 31.7456 61.2224C31.9429 61.0262 31.7872 60.7232 31.5137 60.768Z" fill="white"/>
<path d="M20.1954 61.229C20.0846 61.4631 19.7419 61.7454 19.4512 61.8384C19.2642 61.9004 19.2885 61.9451 19.51 61.9451C19.6138 61.9451 19.7004 61.952 19.7004 61.9623C19.7004 61.9692 19.5896 62.4099 19.4546 62.9332C19.2919 63.5701 19.2158 63.9247 19.2296 63.9901C19.2608 64.1381 19.3473 64.2173 19.4823 64.2173C19.6761 64.2173 19.8734 64.0933 20.1296 63.811C20.2369 63.694 20.2577 63.6561 20.223 63.6217C20.1884 63.5907 20.1573 63.6079 20.0742 63.7112C20.0154 63.7835 19.9254 63.8627 19.87 63.8902C19.7835 63.935 19.7661 63.935 19.7177 63.8868C19.6519 63.8214 19.6623 63.7697 19.8284 63.1328C19.8908 62.885 19.9842 62.52 20.0361 62.3169L20.1296 61.9486L20.358 61.9382C20.5623 61.9279 20.583 61.921 20.5934 61.8487C20.6038 61.7764 20.5934 61.773 20.3996 61.773H20.1919L20.2507 61.5389C20.2854 61.4115 20.3234 61.2738 20.3373 61.229C20.358 61.1705 20.3511 61.1533 20.2957 61.1533C20.2611 61.1533 20.2161 61.1877 20.1954 61.229Z" fill="white"/>
<path d="M30.1781 61.2873C29.9946 61.5593 29.7316 61.7589 29.42 61.8553C29.292 61.8932 29.3647 61.9448 29.5446 61.9448H29.7281L29.4927 62.864C29.2366 63.859 29.2124 64.038 29.3231 64.1482C29.4962 64.3203 29.9289 64.1309 30.1919 63.766C30.3165 63.5904 30.2265 63.5801 30.0535 63.7454C29.9046 63.8934 29.8493 63.9209 29.7489 63.9106C29.6554 63.9037 29.7004 63.6627 29.9635 62.6678C30.0292 62.4303 30.0985 62.1721 30.1192 62.0894L30.1573 61.9448H30.3788C30.5035 61.9448 30.6038 61.9311 30.6038 61.9139C30.6038 61.8966 30.6142 61.8588 30.6246 61.8278C30.6419 61.7796 30.6142 61.7727 30.4342 61.7727C30.3165 61.7727 30.2231 61.7624 30.2231 61.7452C30.2231 61.7314 30.2542 61.604 30.2923 61.4629C30.3754 61.153 30.3754 61.153 30.3131 61.153C30.2888 61.153 30.2265 61.215 30.1781 61.2873Z" fill="white"/>
<path d="M17.208 61.7946C17.0834 61.8187 16.9242 61.8497 16.855 61.86C16.7823 61.8704 16.7234 61.8945 16.7234 61.9082C16.7234 61.9254 16.7823 61.9495 16.855 61.9633C17.0142 61.9909 17.0696 62.0356 17.0696 62.132C17.0696 62.1699 16.938 62.6381 16.7788 63.1682C16.6196 63.6984 16.5019 64.146 16.5158 64.1597C16.5296 64.1735 16.63 64.1838 16.7407 64.177L16.9415 64.1666L17.0696 63.7673C17.2738 63.1235 17.5576 62.6587 17.973 62.2766C18.2049 62.0631 18.3745 61.9874 18.4922 62.0494C18.5891 62.1045 18.5753 62.2112 18.3641 62.9479C18.1253 63.7914 18.0942 63.9566 18.1565 64.0771C18.2845 64.3181 18.6134 64.2458 18.911 63.9119C19.1222 63.6674 19.1949 63.5435 19.1326 63.5194C19.1014 63.5056 19.0253 63.5745 18.9283 63.6984C18.7518 63.9256 18.6411 63.9773 18.5891 63.8637C18.5649 63.8051 18.5891 63.6674 18.6964 63.2887C19.0253 62.1217 19.0495 61.9495 18.9145 61.8015C18.8141 61.6879 18.5407 61.7189 18.2845 61.8669C18.0042 62.0356 17.7134 62.2972 17.5196 62.5589C17.4365 62.6759 17.3603 62.7655 17.3534 62.7586C17.343 62.7448 17.5646 61.9082 17.613 61.7877C17.6338 61.7292 17.523 61.7292 17.208 61.7946Z" fill="white"/>
<path d="M21.5694 61.7692C21.2198 61.8759 20.7941 62.2202 20.5829 62.561C20.2957 63.0361 20.2403 63.5629 20.448 63.8934C20.5137 64.0001 20.6037 64.0861 20.7041 64.1412C20.8426 64.2135 20.891 64.2204 21.1299 64.2066C21.4379 64.186 21.6629 64.093 21.9398 63.8658C22.1267 63.7109 22.1787 63.6386 22.1337 63.5938C22.1198 63.5801 22.0367 63.6179 21.9502 63.6902C21.7287 63.8658 21.476 63.976 21.2925 63.976C21.0952 63.976 20.9879 63.9209 20.8876 63.7729C20.8218 63.6765 20.8079 63.6111 20.8079 63.3838C20.8079 63.1979 20.8218 63.1084 20.8529 63.1015C20.8737 63.0946 21.0329 63.0568 21.2025 63.0155C21.6214 62.9191 22.0229 62.7263 22.1925 62.5438C22.4486 62.265 22.4486 61.9276 22.1925 61.8002C22.0644 61.7348 21.7321 61.721 21.5694 61.7692ZM21.9087 61.9172C21.964 61.9723 21.9606 62.1995 21.9017 62.3338C21.836 62.4784 21.7598 62.561 21.5729 62.6953C21.4345 62.7951 21.0468 62.9432 20.9256 62.9432C20.7283 62.9432 21.206 62.1273 21.5175 61.9413C21.6352 61.8691 21.8464 61.8553 21.9087 61.9172Z" fill="white"/>
<path d="M23.0234 61.7939C22.8988 61.818 22.7396 61.8455 22.6703 61.8593C22.5076 61.8834 22.5007 61.9316 22.653 61.9626C22.8157 62.0004 22.8503 62.0418 22.8503 62.2001C22.8503 62.3516 22.8365 62.4067 22.5423 63.4636C22.4453 63.8147 22.3657 64.1211 22.3657 64.1418C22.3657 64.1693 22.435 64.1831 22.5665 64.1831H22.7672L22.8607 63.8492C22.9126 63.6667 23.0199 63.3672 23.0995 63.1882C23.2449 62.8577 23.5738 62.3309 23.7122 62.207C23.7814 62.145 23.7849 62.145 23.8887 62.2345C24.0272 62.3482 24.0791 62.3482 24.183 62.2345C24.2487 62.1622 24.2695 62.1037 24.2695 61.9832C24.2695 61.8042 24.2245 61.7388 24.1068 61.7388C23.8957 61.7388 23.6084 62.0211 23.3003 62.5237C23.1999 62.689 23.1307 62.7923 23.1411 62.7544C23.1895 62.6167 23.4041 61.8249 23.4041 61.7835C23.4041 61.7319 23.3245 61.7319 23.0234 61.7939Z" fill="white"/>
<path d="M24.8231 61.7908C24.6985 61.8184 24.5393 61.8459 24.47 61.8597C24.3004 61.8872 24.3004 61.9595 24.4666 61.9699C24.5358 61.9733 24.6154 62.0008 24.6431 62.0284C24.7089 62.0938 24.7089 62.0903 24.3593 63.2643C24.2139 63.7497 24.0962 64.1594 24.0962 64.1663C24.0962 64.1766 24.1966 64.1835 24.3177 64.1835H24.5427L24.6673 63.8014C24.8785 63.1404 25.145 62.6928 25.5431 62.3141C25.768 62.1041 25.9619 61.9974 26.0692 62.0318C26.2076 62.0766 26.2042 62.0972 25.91 63.1782C25.8096 63.5638 25.723 63.915 25.723 63.9563C25.723 64.001 25.7542 64.0768 25.7957 64.1284C25.9515 64.3281 26.3149 64.1869 26.5953 63.8186L26.7442 63.6189L26.7684 63.8082C26.7857 63.9632 26.8099 64.0114 26.9172 64.1112C27.0418 64.2214 27.0557 64.2248 27.253 64.2076C27.5922 64.1766 27.9072 63.915 28.2291 63.3917C28.2845 63.3056 28.3156 63.2677 28.3018 63.3056C28.2222 63.55 28.146 63.8737 28.146 63.9838C28.146 64.3178 28.5302 64.2902 28.8625 63.9322C29.0287 63.7532 29.091 63.6464 29.0633 63.5948C29.0494 63.5776 28.9768 63.6327 28.9006 63.7187C28.7172 63.9253 28.6445 63.9632 28.5995 63.8771C28.5718 63.8289 28.5995 63.6878 28.7033 63.3022C28.8729 62.6928 29.1152 61.7943 29.1152 61.7805C29.1152 61.7771 29.0287 61.7736 28.9248 61.7736C28.7275 61.7736 28.7275 61.7736 28.6825 61.9354C28.6722 61.9595 28.6202 61.9285 28.551 61.8597C28.4437 61.753 28.4091 61.7392 28.2429 61.7392C28.0456 61.7392 27.8068 61.8321 27.5922 61.994C27.2945 62.2212 26.9172 62.834 26.803 63.2815C26.7649 63.433 26.7269 63.5122 26.6992 63.5018C26.6749 63.495 26.6576 63.5018 26.6576 63.5225C26.6576 63.581 26.4153 63.8633 26.3323 63.9012C26.263 63.9322 26.2388 63.9287 26.2042 63.884C26.1557 63.8255 26.1973 63.6361 26.4603 62.7204C26.6265 62.142 26.6438 61.901 26.5226 61.8046C26.3946 61.7013 26.1696 61.7185 25.9238 61.8494C25.6711 61.9836 25.2627 62.3554 25.0827 62.6171C25.01 62.7204 24.9477 62.803 24.9408 62.7995C24.9373 62.7927 24.9858 62.6033 25.0515 62.3795C25.1138 62.1523 25.1796 61.9182 25.19 61.8528C25.2142 61.7185 25.1969 61.7151 24.8231 61.7908ZM28.4126 61.9285C28.5752 62.0422 28.5475 62.3554 28.3191 62.9372C28.191 63.2712 27.9245 63.6878 27.7687 63.7979C27.5161 63.9804 27.3084 63.9632 27.2495 63.7497C27.1838 63.5122 27.3326 62.8994 27.568 62.4449C27.7999 61.9905 28.1772 61.7633 28.4126 61.9285Z" fill="white"/>
<path d="M31.1572 61.7901C31.0326 61.8177 30.8734 61.8452 30.8042 61.859C30.6311 61.8865 30.638 61.9278 30.8145 61.9657C30.8942 61.9829 30.9738 62.0208 30.9945 62.0518C31.0188 62.0896 30.9634 62.3306 30.7938 62.9262C30.5134 63.9074 30.4996 63.9934 30.6034 64.1208C30.7592 64.3205 31.0499 64.2275 31.4064 63.8695L31.6384 63.6354L31.711 63.7869C31.9222 64.2241 32.521 64.3446 33.0818 64.0623C34.0059 63.5941 34.4421 62.4477 33.8848 61.9588C33.6944 61.7901 33.4902 61.7281 33.1891 61.7419C32.5002 61.7798 31.7699 62.4477 31.6384 63.1637C31.6176 63.2774 31.6107 63.4151 31.621 63.4667C31.6349 63.5321 31.628 63.5597 31.6037 63.5459C31.5864 63.5321 31.5068 63.5941 31.4272 63.6801C31.2438 63.8902 31.1191 63.9556 31.0326 63.8902C30.9668 63.8454 30.9668 63.8385 31.0395 63.5734C31.0776 63.4254 31.2161 62.9606 31.3407 62.5372C31.4687 62.1172 31.5726 61.7626 31.5726 61.7557C31.5726 61.7281 31.3926 61.7419 31.1572 61.7901ZM33.4417 61.9278C33.5906 62.0036 33.6494 62.1447 33.6494 62.4167C33.6494 62.7334 33.5733 63.0295 33.4106 63.3462C33.1544 63.8557 32.8429 64.1036 32.5037 64.0726C32.1229 64.0347 32.0053 63.7008 32.161 63.0983C32.2995 62.5613 32.6145 62.0724 32.9052 61.9416C33.0748 61.8624 33.3067 61.859 33.4417 61.9278Z" fill="white"/>
<path d="M34.7569 61.7945C34.6323 61.8186 34.4731 61.8496 34.4039 61.8599C34.2343 61.8875 34.2343 61.9598 34.4004 61.9735C34.5389 61.9804 34.6185 62.0321 34.6185 62.1044C34.6185 62.1629 34.3173 63.2198 34.1477 63.75C34.082 63.9565 34.03 64.139 34.03 64.1562C34.03 64.17 34.1304 64.1837 34.2516 64.1837H34.4696L34.5839 63.8464C34.8192 63.1372 35.0061 62.8032 35.3938 62.397C35.733 62.0458 36.0169 61.9253 36.0861 62.1044C36.1103 62.1698 36.0273 62.5347 35.8127 63.3093C35.7261 63.6157 35.6569 63.9049 35.6569 63.9565C35.6569 64.0908 35.7988 64.2182 35.9442 64.2182C36.1034 64.2182 36.3665 64.0426 36.5222 63.8326L36.6434 63.6673L36.6815 63.8429C36.7368 64.0839 36.8476 64.1872 37.0726 64.2113C37.4084 64.2423 37.7614 63.9875 38.0695 63.4918C38.1387 63.3782 38.1976 63.2921 38.2045 63.299C38.2114 63.3059 38.1872 63.4091 38.1491 63.5296C38.111 63.6501 38.0729 63.8154 38.0591 63.898C38.0176 64.1837 38.1976 64.2974 38.4814 64.1631C38.6129 64.1011 39.0214 63.6742 39.0041 63.6191C38.9798 63.5434 38.921 63.5744 38.8102 63.7224C38.696 63.8739 38.5783 63.9531 38.5229 63.9187C38.4537 63.8808 38.4814 63.75 38.8448 62.4624C38.9383 62.1319 39.0144 61.8427 39.0144 61.8186C39.0144 61.7876 38.9556 61.7739 38.8241 61.7739C38.6372 61.7739 38.6302 61.7773 38.6095 61.8771L38.5887 61.9804L38.471 61.8599C38.3637 61.7498 38.336 61.7394 38.1526 61.7394C37.8618 61.7394 37.5918 61.884 37.308 62.187C37.0553 62.459 36.7957 62.9272 36.7265 63.2404C36.6918 63.3954 36.6399 63.4986 36.5015 63.6708C36.3111 63.9083 36.2072 63.9703 36.138 63.8877C36.0896 63.8291 36.0826 63.8601 36.3665 62.8101C36.5776 62.0217 36.588 61.8909 36.4426 61.7911C36.318 61.705 36.0896 61.7257 35.8576 61.8496C35.605 61.9839 35.2415 62.3144 35.0338 62.5932C34.9508 62.7103 34.8781 62.7998 34.8746 62.7963C34.8711 62.7929 34.9335 62.5554 35.02 62.273C35.1031 61.9873 35.1723 61.7532 35.1723 61.7463C35.1723 61.7291 34.9681 61.7498 34.7569 61.7945ZM38.3222 61.9391C38.4745 62.0596 38.4433 62.4108 38.2287 62.9375C38.021 63.4642 37.7268 63.8326 37.4672 63.9049C37.3564 63.9359 37.3218 63.9324 37.2491 63.8773C36.9341 63.6467 37.436 62.1663 37.9137 61.9357C38.0626 61.8599 38.2252 61.8634 38.3222 61.9391Z" fill="white"/>
<path d="M176.933 38.4005L176.938 38.4004C178.008 38.3856 179.032 38.7501 179.788 39.4023C180.541 40.0524 180.964 40.9316 180.981 41.8429V64.8673C180.964 65.7787 180.541 66.6578 179.788 67.308C179.032 67.9602 178.008 68.3247 176.938 68.3098V68.3098H176.933H132.45V68.3097L132.444 68.3098C131.375 68.3247 130.35 67.9602 129.595 67.308C128.841 66.6578 128.419 65.7787 128.401 64.8674V41.8429C128.419 40.9316 128.841 40.0524 129.595 39.4023C130.35 38.7501 131.375 38.3856 132.444 38.4004L132.444 38.4005H132.45L176.933 38.4005Z" stroke="white" stroke-width="0.8"/>
<path d="M135.79 49.43H137.424L136.607 47.3633L135.79 49.43Z" fill="white"/>
<path d="M144.48 56.3682V57.3278H147.229V58.3614H144.48V59.4688H147.526L148.937 57.9185L147.6 56.3682H144.48Z" fill="white"/>
<path d="M165.945 47.3633L165.053 49.43H166.762L165.945 47.3633Z" fill="white"/>
<path d="M152.427 60.0576V55.8506L150.496 57.9174L152.427 60.0576Z" fill="white"/>
<path d="M156.067 57.0328C155.992 56.5899 155.695 56.3682 155.249 56.3682H153.69V57.6967H155.324C155.769 57.6968 156.067 57.4755 156.067 57.0328Z" fill="white"/>
<path d="M161.266 57.5506C161.414 57.4766 161.489 57.255 161.489 57.034C161.563 56.739 161.414 56.5911 161.266 56.5172C161.118 56.4434 160.894 56.4434 160.672 56.4434H159.186V57.6245H160.672C160.894 57.6245 161.117 57.6245 161.266 57.5506Z" fill="white"/>
<path d="M171.961 45.4453V46.331L171.516 45.4453H168.025V46.331L167.579 45.4453H162.825C162.008 45.4453 161.34 45.5931 160.746 45.8883V45.4453H157.404V45.5192V45.8883C157.032 45.5932 156.587 45.4453 155.992 45.4453H144.034L143.217 47.2906L142.4 45.4453H139.726H138.612V46.331L138.24 45.4453H138.166H134.972L133.487 48.9142L131.778 52.6784L131.747 52.7524H131.778H135.567H135.614L135.641 52.6784L136.087 51.5715H137.052L137.498 52.7524H141.806V52.6784V51.8667L142.177 52.7523H144.331L144.702 51.8667V52.6784V52.7524H146.41H154.952H155.027V50.8333H155.175C155.324 50.8333 155.324 50.8333 155.324 51.0548V52.6785H160.672V52.2357C161.117 52.4574 161.785 52.6785 162.677 52.6785H164.905L165.351 51.4979H166.39L166.836 52.6785H171.144V51.9406V51.5716L171.813 52.6785H171.961H172.035H175.304V45.4453H171.961H171.961V45.4453ZM146.782 51.6455H146.039H145.594V51.203V47.5859L145.519 47.7552V47.7532L143.791 51.6455H143.737H143.339H142.697L140.914 47.5859V51.6455H138.389L137.869 50.5384H135.344L134.824 51.6455H133.518L135.715 46.4788H137.572L139.652 51.4239V46.4788H140.097H141.619L141.654 46.5528H141.657L142.594 48.5795L143.267 50.0981L143.291 50.0216L144.776 46.4789H146.782V51.6455H146.782V51.6455ZM151.907 47.5859H149.01V48.5454H151.833V49.5786H149.01V50.6123H151.907V51.7191H147.748V46.4789H151.907V47.5859ZM157.205 49.4891C157.207 49.4908 157.209 49.492 157.212 49.4936C157.24 49.5231 157.264 49.5527 157.284 49.581C157.427 49.7664 157.542 50.042 157.547 50.4463C157.548 50.4533 157.548 50.4602 157.549 50.4672C157.549 50.4712 157.549 50.4747 157.549 50.4788C157.549 50.4812 157.549 50.483 157.549 50.4852C157.551 50.5259 157.552 50.5674 157.552 50.6123V51.6456H156.438V51.0549C156.438 50.7597 156.438 50.3168 156.215 50.0216C156.145 49.9518 156.074 49.9059 155.996 49.8732C155.885 49.8015 155.674 49.8003 155.324 49.8003H153.986V51.6456H152.724V46.4789H155.547C156.215 46.4789 156.661 46.4789 157.032 46.7003C157.396 46.9175 157.616 47.2776 157.624 47.848C157.607 48.6335 157.1 49.0644 156.735 49.2097C156.735 49.2097 156.983 49.2593 157.205 49.4891ZM159.706 51.6455H158.443V46.4788H159.706V51.6455ZM174.19 51.6455H172.555L170.179 47.7334V50.981L170.171 50.9734V51.6487H168.916V51.6456H167.653L167.208 50.5385H164.608L164.162 51.7192H162.751C162.157 51.7192 161.414 51.5717 160.969 51.1289C160.523 50.686 160.3 50.0955 160.3 49.1362C160.3 48.3981 160.449 47.6596 160.969 47.0693C161.34 46.6261 162.008 46.4789 162.825 46.4789H164.014V47.5859H162.825C162.38 47.5859 162.157 47.6595 161.859 47.8813C161.637 48.1026 161.488 48.5454 161.488 49.062C161.488 49.6526 161.563 50.0216 161.859 50.3168C162.083 50.5385 162.38 50.6124 162.751 50.6124H163.271L164.979 46.553H165.722H166.836L168.916 51.4981V51.2459V49.5788V49.4314V46.5531H170.773L172.926 50.1695V46.5531H174.19V51.6457H174.19V51.6455Z" fill="white"/>
<path d="M156.146 48.6303C156.167 48.6072 156.187 48.5811 156.204 48.5512C156.271 48.4454 156.348 48.2547 156.306 47.9945C156.305 47.9707 156.3 47.9486 156.295 47.9272C156.294 47.9213 156.294 47.9161 156.292 47.9102L156.292 47.9103C156.255 47.7838 156.16 47.7061 156.066 47.659C155.917 47.5855 155.695 47.5854 155.472 47.5854H153.986V48.7666H155.472C155.695 48.7666 155.917 48.7666 156.066 48.6926C156.089 48.6813 156.108 48.666 156.128 48.6487L156.128 48.6497C156.128 48.6496 156.135 48.6417 156.146 48.6303Z" fill="white"/>
<path d="M178.572 59.0262C178.572 58.5096 178.424 57.9928 178.201 57.6238V54.3025H178.198V54.0808C178.198 54.0808 175.084 54.0808 174.621 54.0808C174.158 54.0808 173.596 54.5235 173.596 54.5235V54.0808H170.179C169.659 54.0808 168.991 54.2285 168.694 54.5235V54.0808H162.603V54.3025V54.5234C162.158 54.1547 161.34 54.0807 160.969 54.0807H156.958V54.3024V54.5233C156.587 54.1546 155.695 54.0806 155.249 54.0806H150.793L149.753 55.1878L148.788 54.0806H148.477H147.971H142.103V54.3023V54.8854V61.5356H148.639L149.713 60.4681L150.644 61.5356H150.719H154.485H154.656H154.73H154.804V60.7976V59.8381H155.176C155.695 59.8381 156.364 59.8381 156.884 59.6164V61.4614V61.6094H160.226V61.4614V59.6903H160.374C160.598 59.6903 160.598 59.6903 160.598 59.9117V61.4614V61.6094H170.699C171.368 61.6094 172.036 61.4614 172.407 61.1663V61.4614V61.6094H175.601C176.269 61.6094 176.938 61.5356 177.384 61.2402C178.068 60.8325 178.499 60.1108 178.563 59.2501C178.566 59.2246 178.569 59.1991 178.572 59.1735L178.567 59.1694C178.57 59.1216 178.572 59.0744 178.572 59.0262ZM155.176 58.5835H153.69V58.8044V59.2474V59.6904V60.5023H151.249L149.828 58.8783L149.823 58.8838L149.753 58.8044L148.119 60.5023H143.366V55.3358H148.194L149.513 56.7714L149.79 57.072L149.828 57.0333L151.388 55.3359H155.324C156.088 55.3359 156.944 55.5232 157.268 56.2957C157.307 56.4486 157.329 56.6187 157.329 56.8119C157.329 58.2879 156.289 58.5835 155.176 58.5835ZM162.603 58.5095C162.752 58.7304 162.826 59.0261 162.826 59.4692V60.5022H161.563V59.8381C161.563 59.5424 161.563 59.0261 161.34 58.8044C161.192 58.5835 160.895 58.5835 160.449 58.5835H159.112V60.5023H157.85V55.2619H160.672C161.266 55.2619 161.786 55.2619 162.158 55.4831C162.529 55.7047 162.826 56.0738 162.826 56.6643C162.826 57.476 162.306 57.9189 161.935 58.0667C162.306 58.2138 162.529 58.3618 162.603 58.5095ZM167.728 56.3686H164.831V57.3282H167.654V58.3617H164.831V59.3952H167.728V60.5022H163.569V55.2618H167.728V56.3686ZM170.848 60.5023H168.471V59.3953H170.848C171.07 59.3953 171.219 59.3953 171.368 59.2475C171.442 59.1735 171.516 59.0262 171.516 58.8784C171.516 58.7305 171.442 58.5836 171.368 58.5096C171.293 58.4358 171.145 58.3619 170.922 58.3619C169.733 58.2881 168.322 58.3619 168.322 56.7383C168.322 56.0001 168.768 55.1881 170.105 55.1881H172.556V56.4427H170.253C170.031 56.4427 169.882 56.4427 169.733 56.5166C169.585 56.5905 169.585 56.7383 169.585 56.8857C169.585 57.1073 169.733 57.1811 169.882 57.2544C170.031 57.3284 170.179 57.3284 170.327 57.3284H170.996C171.665 57.3284 172.11 57.476 172.407 57.7713C172.63 57.9929 172.779 58.3619 172.779 58.8784C172.779 59.9853 172.11 60.5023 170.848 60.5023ZM177.235 59.9853C176.939 60.2809 176.418 60.5023 175.675 60.5023H173.299V59.3953H175.675C175.898 59.3953 176.047 59.3953 176.195 59.2475C176.269 59.1735 176.344 59.0262 176.344 58.8784C176.344 58.7305 176.269 58.5836 176.195 58.5096C176.121 58.4358 175.973 58.3619 175.75 58.3619C174.562 58.2881 173.15 58.3619 173.15 56.7384C173.15 56.0369 173.554 55.4032 174.55 55.215C174.669 55.1986 174.795 55.1881 174.933 55.1881H177.384V56.4427H175.75H175.156H175.081C174.858 56.4427 174.71 56.4427 174.562 56.5166C174.487 56.5905 174.413 56.7383 174.413 56.8857C174.413 57.1073 174.487 57.1811 174.71 57.2544C174.858 57.3284 175.007 57.3284 175.156 57.3284H175.23H175.824C176.149 57.3284 176.394 57.3682 176.619 57.4466C176.824 57.5206 177.506 57.8233 177.658 58.6136C177.671 58.6964 177.681 58.7828 177.681 58.8784C177.681 59.3214 177.532 59.6904 177.235 59.9853Z" fill="white"/>
<path d="M114.668 38.3214L114.674 38.3213C115.775 38.3064 116.829 38.6727 117.606 39.3263C118.38 39.9777 118.811 40.8561 118.829 41.7637V64.7869C118.811 65.6945 118.38 66.5729 117.606 67.2243C116.829 67.8779 115.775 68.2442 114.674 68.2292V68.2292H114.668H69.0632V68.2292L69.0578 68.2292C67.9566 68.2442 66.9025 67.8779 66.1259 67.2243C65.352 66.5729 64.9206 65.6945 64.9027 64.7869V41.7637C64.9206 40.8561 65.352 39.9777 66.1259 39.3263C66.9025 38.6727 67.9566 38.3064 69.0578 38.3213L69.0578 38.3214H69.0632L114.668 38.3214Z" stroke="white" stroke-width="0.8"/>
<path d="M85.106 43.3418L85.1052 43.3418C83.1126 43.3344 81.4885 44.9651 81.4885 46.9515V46.9518L81.4727 60.433C81.4727 62.4189 83.0961 64.0431 85.0828 64.0506C85.083 64.0506 85.0831 64.0506 85.0833 64.0506L98.5717 64.0586L85.106 43.3418ZM85.106 43.3418L98.5874 43.3498H98.5875M85.106 43.3418L98.5875 43.3498M98.5875 43.3498C100.565 43.3498 102.197 44.9811 102.189 46.9665V46.9675M98.5875 43.3498L102.189 46.9675M102.189 46.9675V60.4487M102.189 46.9675V60.4487M102.189 60.4487C102.189 62.4342 100.558 64.0585 98.5719 64.0586L102.189 60.4487Z" stroke="white" stroke-width="0.5"/>
<path fill-rule="evenodd" clip-rule="evenodd" d="M99.6167 52.0719H98.0791L97.4451 53.2766H98.5229L99.6167 52.0719ZM100.639 54.0297H99.1411V57.2632C99.1411 58.254 98.4752 58.5392 97.9841 58.5392C97.5163 58.5392 97.0011 58.3648 97.0092 57.5008V54.0296H95.5113L95.5033 57.7148C95.5033 59.1413 96.3199 59.7753 97.4452 59.7753C98.2297 59.7833 98.8402 59.4424 99.1809 58.8402H99.1967V59.6249H100.639V54.0297H100.639ZM94.3381 55.5115C94.3381 54.1247 92.88 53.879 92.0715 53.879C90.9065 53.879 89.6938 54.1247 89.5115 55.8365H90.9619C91.0094 55.5117 91.1442 55.0598 91.8891 55.0598C92.2775 55.0598 92.88 55.0917 92.88 55.7099C92.88 56.0268 92.5867 56.122 92.3488 56.1537L91.0016 56.3518C90.0426 56.4866 89.3293 57.0492 89.3293 58.143C89.3293 59.3 90.217 59.7756 91.065 59.7756C92.0953 59.7756 92.5787 59.308 92.9116 58.9673C92.9433 59.2765 92.9671 59.3557 93.0543 59.6251L94.3462 59.6172C94.3462 58.999 94.3382 58.5472 94.3382 58.5394V55.5115H94.3381ZM87.9502 52.0719H86.4523V54.0216H85.6756V55.0757H86.4443V58.4757C86.4443 59.1968 86.6742 59.6884 87.974 59.6884H88.1722C88.4099 59.6884 88.6476 59.6723 88.8776 59.6646V58.547C88.7745 58.5549 88.6637 58.5708 88.5684 58.5708C87.9582 58.5708 87.9422 58.4439 87.9422 58.1109L87.9502 55.0756H88.8854V54.0215H87.9502V52.0719ZM84.9861 52.064H83.3693L83.3613 59.6171H84.9782L84.9861 52.064Z" fill="white"/>
<path fill-rule="evenodd" clip-rule="evenodd" d="M92.8791 57.6195V56.8984C92.7285 57.0172 92.4747 57.1122 91.8566 57.1995C91.2939 57.2945 90.8342 57.4372 90.8342 58.0476C90.8342 58.5547 91.2464 58.7212 91.5316 58.7212C92.1975 58.7213 92.8791 58.3012 92.8791 57.6195Z" fill="black"/>
<path d="M50.2921 0.400515L50.2977 0.400438C51.3668 0.385563 52.3912 0.75005 53.1469 1.40227C53.9002 2.05235 54.3226 2.93144 54.3402 3.8427V26.8675C54.3226 27.7788 53.9002 28.6579 53.1469 29.308C52.3912 29.9602 51.3668 30.3247 50.2977 30.3098V30.3098H50.2921H5.81091V30.3097L5.80535 30.3098C4.73623 30.3247 3.71183 29.9602 2.95606 29.308C2.20273 28.6578 1.78033 27.7787 1.76279 26.8674V3.84287C1.78033 2.93155 2.20273 2.05239 2.95606 1.40227C3.71183 0.75005 4.73623 0.385563 5.80535 0.400438L5.80535 0.400476H5.81091L50.2921 0.400515Z" stroke="white" stroke-width="0.8"/>
<path d="M22.0889 21.2158L24.0862 9.49512H27.3199L25.3226 21.2158H22.0889Z" fill="white"/>
<path d="M36.835 9.79857C36.1941 9.56103 35.1901 9.30664 33.9363 9.30664C30.7404 9.30664 28.4893 10.8967 28.4699 13.1747C28.4522 14.8585 30.0769 15.7977 31.3043 16.3588C32.563 16.9322 32.9863 17.3001 32.9801 17.8125C32.9723 18.5981 31.9744 18.9572 31.0447 18.9572C29.7505 18.9568 29.0626 18.7795 28.0005 18.3421L27.5838 18.1553L27.1296 20.7791C27.8852 21.1064 29.2823 21.3903 30.7326 21.4046C34.1316 21.4038 36.3391 19.8335 36.3639 17.4001C36.3762 16.067 35.5144 15.0524 33.6486 14.2156C32.518 13.6741 31.8256 13.3124 31.8331 12.7628C31.8331 12.2758 32.4196 11.7549 33.6853 11.7549C34.7428 11.7385 35.509 11.9663 36.1062 12.2038L36.3956 12.339L36.835 9.79857Z" fill="white"/>
<path d="M42.3476 9.49512C41.5729 9.49512 41.0131 9.73024 40.6726 10.4933L35.8801 21.2162H39.3039L39.9695 19.4201H44.0601L44.4402 21.2162H47.4839L44.821 9.49545H42.3478L42.3476 9.49512ZM40.8779 17.0749C41.145 16.3999 42.1659 13.799 42.1659 13.799C42.1474 13.8297 42.4317 13.1208 42.5949 12.6808L42.8138 13.6908C42.8138 13.6908 43.4324 16.4887 43.5623 17.0752H40.8779V17.0749Z" fill="white"/>
<path d="M16.1921 17.5295L15.9072 15.9227C15.3171 14.0497 13.4854 12.0231 11.4329 11.0077L14.2899 21.2158H17.7144L22.8503 9.49512H19.4265L16.1921 17.5295Z" fill="white"/>
<path d="M7.91748 9.49512V9.68438C11.9752 10.6542 14.7922 13.1061 15.9075 15.9228L14.7349 10.4954C14.5392 9.75367 13.9461 9.52095 13.2442 9.49523L7.91748 9.49512Z" fill="white"/>
<path d="M85.1278 6.88965C80.0369 6.92218 75.9138 11.0697 75.9138 16.1849C75.9138 21.3164 80.0694 25.472 85.1847 25.472C87.5837 25.472 89.7713 24.5531 91.4222 23.0486C91.7637 22.7396 92.0728 22.4061 92.3655 22.0564H90.4626C90.2105 21.7474 89.9746 21.4303 89.7713 21.0968H93.0486C93.252 20.7797 93.4309 20.4462 93.5854 20.1047H89.2265C89.0801 19.7875 88.95 19.4622 88.8361 19.1288H93.9676C94.2766 18.2017 94.4474 17.2096 94.4474 16.1849C94.4474 15.5018 94.3742 14.8349 94.236 14.1925H88.5677C88.6409 13.8591 88.7304 13.5338 88.828 13.2166H93.9595C93.8456 12.875 93.7074 12.5416 93.561 12.2245H89.2183C89.3728 11.891 89.5517 11.5657 89.7469 11.2486H93.0243C92.8047 10.8989 92.5688 10.5655 92.3086 10.2564H90.487C90.7716 9.92301 91.0806 9.60585 91.4141 9.32122C89.7632 7.81673 87.5756 6.89778 85.1765 6.89778C85.1684 6.88965 85.1522 6.88965 85.1278 6.88965Z" fill="white"/>
<path d="M106.898 16.1846C106.898 21.3161 102.751 25.4798 97.6275 25.4798C92.5042 25.4798 88.3567 21.3242 88.3567 16.1927C88.3567 11.0612 92.5042 6.89747 97.6275 6.89747C102.743 6.88934 106.898 11.045 106.898 16.1846C106.898 16.1846 106.898 16.1765 106.898 16.1846Z" fill="white"/>
<path d="M106.898 16.2899C106.898 21.4214 102.751 25.5851 97.6275 25.5851C92.5042 25.5851 88.3567 21.4295 88.3567 16.298V16.2899C88.3567 11.1584 92.5042 6.99463 97.6275 6.99463C102.743 6.99463 106.898 11.1503 106.898 16.2899C106.898 16.2818 106.898 16.2818 106.898 16.2899Z" fill="white"/>
<path d="M85.1278 6.99463C80.0369 7.02716 75.9138 11.1746 75.9138 16.2899C75.9138 21.4214 80.0694 25.5851 85.1847 25.5851C87.5837 25.5851 89.7713 24.6662 91.4222 23.1617C91.7637 22.8527 92.0728 22.5193 92.3655 22.1696H90.4626C90.2105 21.8605 89.9746 21.5434 89.7713 21.2099H93.0487C93.252 20.8928 93.4309 20.5594 93.5854 20.2178H89.2265C89.0801 19.9006 88.95 19.5753 88.8361 19.2419H93.9676C94.2766 18.3148 94.4474 17.3227 94.4474 16.298C94.4474 15.6149 94.3742 14.9481 94.236 14.3056H88.5677C88.6409 13.9722 88.7304 13.6469 88.828 13.3297H93.9595C93.8456 12.9882 93.7074 12.6547 93.561 12.3376H89.2183C89.3728 12.0041 89.5518 11.6789 89.7469 11.3617H93.0243C92.8047 11.012 92.5688 10.6786 92.3086 10.3695H90.487C90.7716 10.0361 91.0806 9.71896 91.4141 9.43433C89.7632 7.92985 87.5756 7.01089 85.1766 7.01089C85.1684 6.99463 85.1522 6.99463 85.1278 6.99463Z" fill="white"/>
<path d="M88.5196 18.6557L88.6416 17.818C88.5765 17.818 88.4708 17.8506 88.3895 17.8506C88.0479 17.8506 88.0073 17.6716 88.0317 17.5334L88.3082 15.8175H88.8286L88.9506 14.8904H88.4545L88.5521 14.313H87.5763C87.5519 14.3374 86.9907 17.5659 86.9907 17.9563C86.9907 18.5418 87.316 18.802 87.7796 18.7939C88.1455 18.7776 88.422 18.6801 88.5196 18.6557Z" fill="#231F20"/>
<path d="M88.8364 17.0471C88.8364 18.4458 89.7554 18.7793 90.5442 18.7793C91.268 18.7793 91.5852 18.6166 91.5852 18.6166L91.7559 17.6651C91.7559 17.6651 91.2029 17.9091 90.7069 17.9091C89.6497 17.9091 89.8367 17.1203 89.8367 17.1203H91.8454C91.8454 17.1203 91.9755 16.4778 91.9755 16.2176C91.9755 15.567 91.6502 14.77 90.5686 14.77C89.5683 14.77 88.8364 15.8354 88.8364 17.0471ZM90.5686 15.6564C91.1216 15.6564 91.024 16.2826 91.024 16.3314H89.9262C89.9262 16.2664 90.0319 15.6564 90.5686 15.6564Z" fill="#231F20"/>
<path d="M96.8146 18.6555L96.9936 17.5739C96.9936 17.5739 96.5056 17.8179 96.1803 17.8179C95.4809 17.8179 95.1963 17.2811 95.1963 16.7038C95.1963 15.5327 95.7981 14.8902 96.4731 14.8902C96.9773 14.8902 97.3758 15.1749 97.3758 15.1749L97.5384 14.1258C97.5384 14.1258 96.9366 13.8818 96.4243 13.8818C95.2858 13.8818 94.1716 14.874 94.1716 16.7363C94.1716 17.9724 94.7734 18.7856 95.9526 18.7856C96.286 18.7856 96.8146 18.6555 96.8146 18.6555Z" fill="#231F20"/>
<path d="M83.0955 14.7856C82.4205 14.7856 81.9 15.0052 81.9 15.0052L81.7536 15.8591C81.7536 15.8591 82.1847 15.6883 82.8271 15.6883C83.1931 15.6883 83.4614 15.729 83.4614 16.0299C83.4614 16.2088 83.4289 16.282 83.4289 16.282C83.4289 16.282 83.1361 16.2576 83.006 16.2576C82.1521 16.2576 81.2576 16.6236 81.2576 17.7214C81.2576 18.5916 81.8431 18.7868 82.2091 18.7868C82.9084 18.7868 83.2012 18.3313 83.2256 18.3313L83.1931 18.7136H84.0632L84.4536 15.9892C84.4536 14.8182 83.4452 14.7856 83.0955 14.7856ZM83.3069 16.9976C83.3232 17.1684 83.2012 17.941 82.6075 17.941C82.2985 17.941 82.2172 17.7052 82.2172 17.5669C82.2172 17.2985 82.3636 16.9732 83.0873 16.9732C83.2581 16.9732 83.2744 16.9976 83.3069 16.9976Z" fill="#231F20"/>
<path d="M85.3724 18.7534C85.5919 18.7534 86.8687 18.8103 86.8687 17.4929C86.8687 16.2649 85.6895 16.5089 85.6895 16.0128C85.6895 15.7688 85.8847 15.6875 86.2344 15.6875C86.3726 15.6875 86.9094 15.7363 86.9094 15.7363L87.0314 14.8662C87.0314 14.8662 86.6817 14.793 86.1205 14.793C85.3886 14.793 84.6486 15.0857 84.6486 16.086C84.6486 17.2164 85.8847 17.1025 85.8847 17.5824C85.8847 17.8995 85.5431 17.9239 85.2748 17.9239C84.8112 17.9239 84.3965 17.7694 84.3965 17.7694L84.2664 18.6314C84.2908 18.6396 84.5429 18.7534 85.3724 18.7534Z" fill="#231F20"/>
<path d="M104.996 13.9966L104.785 15.3222C104.785 15.3222 104.41 14.8098 103.833 14.8098C102.93 14.8098 102.174 15.8995 102.174 17.1601C102.174 17.9733 102.573 18.7621 103.402 18.7621C103.996 18.7621 104.321 18.3474 104.321 18.3474L104.28 18.6971H105.24L105.996 13.9966H104.996ZM104.541 16.5827C104.541 17.1031 104.28 17.8025 103.744 17.8025C103.386 17.8025 103.223 17.5016 103.223 17.0381C103.223 16.2736 103.565 15.7613 104.004 15.7613C104.354 15.7613 104.541 16.0053 104.541 16.5827Z" fill="#231F20"/>
<path d="M77.7523 18.7052L78.3541 15.1514L78.4435 18.7052H79.1266L80.3953 15.1514L79.8341 18.7052H80.8426L81.6233 13.9966H80.0618L79.086 16.8836L79.029 13.9966H77.5896L76.8008 18.7052H77.7523Z" fill="#231F20"/>
<path d="M92.9594 18.7139C93.244 17.0793 93.301 15.7456 93.9841 15.9896C94.1061 15.3553 94.2199 15.1113 94.35 14.8429C94.35 14.8429 94.285 14.8267 94.163 14.8267C93.7238 14.8267 93.3904 15.4285 93.3904 15.4285L93.4799 14.8755H92.5609L91.9429 18.7058H92.9594V18.7139Z" fill="#231F20"/>
<path d="M99.0991 14.7856C98.4242 14.7856 97.9037 15.0052 97.9037 15.0052L97.7573 15.8591C97.7573 15.8591 98.1883 15.6883 98.8308 15.6883C99.1967 15.6883 99.4651 15.729 99.4651 16.0299C99.4651 16.2088 99.4326 16.282 99.4326 16.282C99.4326 16.282 99.1398 16.2576 99.0097 16.2576C98.1558 16.2576 97.2612 16.6236 97.2612 17.7214C97.2612 18.5916 97.8468 18.7868 98.2127 18.7868C98.9121 18.7868 99.213 18.3313 99.2211 18.3313L99.1886 18.7136H100.059L100.449 15.9892C100.449 14.8182 99.4488 14.7856 99.0991 14.7856ZM99.3106 16.9976C99.3268 17.1684 99.2049 17.941 98.6112 17.941C98.3022 17.941 98.229 17.7052 98.229 17.5669C98.229 17.2985 98.3754 16.9732 99.0991 16.9732C99.2618 16.9732 99.278 16.9976 99.3106 16.9976Z" fill="#231F20"/>
<path d="M101.246 18.7139C101.531 17.0793 101.588 15.7456 102.271 15.9896C102.393 15.3553 102.507 15.1113 102.637 14.8429C102.637 14.8429 102.572 14.8267 102.45 14.8267C102.011 14.8267 101.677 15.4285 101.677 15.4285L101.767 14.8755H100.848L100.23 18.7058H101.246V18.7139Z" fill="#231F20"/>
<path d="M113.906 0.400513L113.911 0.40044C115.013 0.385497 116.067 0.751756 116.843 1.40542C117.617 2.05678 118.049 2.9352 118.067 3.84279V26.866C118.049 27.7736 117.617 28.652 116.843 29.3034C116.067 29.957 115.013 30.3233 113.911 30.3083V30.3083H113.906H68.3008V30.3083L68.2953 30.3083C67.1941 30.3233 66.14 29.957 65.3634 29.3034C64.5895 28.652 64.1582 27.7736 64.1402 26.866V3.84278C64.1582 2.9352 64.5895 2.05678 65.3634 1.40542C66.14 0.751756 67.1941 0.385497 68.2953 0.40044L68.2953 0.400476H68.3008L113.906 0.400513Z" stroke="white" stroke-width="0.8"/>
<path d="M177.632 0.400513L177.638 0.40044C178.739 0.385497 179.793 0.751756 180.57 1.40542C181.344 2.05678 181.775 2.9352 181.793 3.84279V26.866C181.775 27.7736 181.344 28.652 180.57 29.3034C179.793 29.957 178.739 30.3233 177.638 30.3083V30.3083H177.632H132.027V30.3083L132.022 30.3083C130.92 30.3233 129.866 29.957 129.09 29.3034C128.316 28.652 127.884 27.7736 127.867 26.866V3.84278C127.884 2.9352 128.316 2.05678 129.09 1.40542C129.866 0.751756 130.92 0.385497 132.022 0.40044L132.022 0.400476H132.027L177.632 0.400513Z" stroke="white" stroke-width="0.8"/>
<g clip-path="url(#clip0_599_17333)">
<path d="M151.295 21.5489V13.8267C151.295 13.1445 151.572 12.4902 152.065 12.0078C152.558 11.5254 153.227 11.2544 153.924 11.2544L156.254 11.2576C156.95 11.2589 157.616 11.5302 158.108 12.0119C158.599 12.4936 158.875 13.1463 158.874 13.8267V15.4701C158.874 16.1523 158.598 16.8066 158.105 17.2891C157.611 17.7716 156.943 18.0427 156.245 18.0428H152.952" stroke="white" stroke-linecap="round" stroke-linejoin="round"/>
<path d="M159.526 11.2539H160.537C160.823 11.2539 161.097 11.3651 161.3 11.5631C161.502 11.7611 161.616 12.0297 161.616 12.3097V18.0777" stroke="white" stroke-linecap="round" stroke-linejoin="round"/>
<path d="M161.399 10.3604L160.941 9.91165C160.914 9.88522 160.893 9.85383 160.878 9.81928C160.863 9.78474 160.856 9.74771 160.856 9.71031C160.856 9.67291 160.863 9.63588 160.878 9.60133C160.893 9.56679 160.914 9.5354 160.941 9.50897L161.399 9.06057C161.454 9.00709 161.528 8.97705 161.605 8.97705C161.683 8.97705 161.757 9.00709 161.812 9.06057L162.27 9.50897C162.297 9.5354 162.318 9.56679 162.333 9.60133C162.347 9.63588 162.355 9.67291 162.355 9.71031C162.355 9.74771 162.347 9.78474 162.333 9.81928C162.318 9.85383 162.297 9.88522 162.27 9.91165L161.81 10.3604C161.783 10.3869 161.75 10.4079 161.715 10.4222C161.68 10.4366 161.642 10.4439 161.604 10.4439C161.565 10.4439 161.528 10.4366 161.492 10.4222C161.457 10.4079 161.425 10.3869 161.398 10.3604" fill="white"/>
<path d="M163.556 11.2495H164.559C165.074 11.2493 165.569 11.4495 165.934 11.806L168.278 14.1001C168.35 14.1708 168.436 14.2269 168.53 14.2652C168.625 14.3035 168.726 14.3232 168.828 14.3232C168.93 14.3232 169.031 14.3035 169.126 14.2652C169.22 14.2269 169.306 14.1708 169.378 14.1001L171.714 11.8148C171.894 11.6382 172.109 11.4982 172.345 11.4027C172.58 11.3072 172.833 11.2581 173.088 11.2583H173.903" stroke="white" stroke-linecap="round" stroke-linejoin="round"/>
<path d="M163.556 18.0279H164.559C165.074 18.0281 165.569 17.8279 165.934 17.4714L168.278 15.1773C168.424 15.0347 168.622 14.9546 168.828 14.9546C169.034 14.9546 169.232 15.0347 169.378 15.1773L171.714 17.463C172.079 17.8195 172.573 18.0197 173.088 18.0196H173.903" stroke="white" stroke-linecap="round" stroke-linejoin="round"/>
<path d="M145.319 19.4921C145.072 19.493 144.827 19.4459 144.599 19.3536C144.37 19.2613 144.162 19.1256 143.988 18.9543L142.064 17.0709C141.996 17.0072 141.905 16.9717 141.811 16.9717C141.717 16.9717 141.627 17.0072 141.559 17.0709L139.628 18.9595C139.454 19.131 139.246 19.267 139.018 19.3596C138.789 19.4522 138.544 19.4995 138.297 19.4989H137.92L140.358 21.884C140.723 22.241 141.219 22.4414 141.735 22.4414C142.252 22.4414 142.747 22.241 143.113 21.884L145.555 19.4937L145.319 19.4921Z" fill="white"/>
<path d="M138.297 12.837C138.544 12.8364 138.789 12.8837 139.018 12.9763C139.247 13.0689 139.454 13.2049 139.629 13.3765L141.559 15.2655C141.626 15.3309 141.717 15.3677 141.812 15.3677C141.906 15.3677 141.997 15.3309 142.064 15.2655L143.988 13.3836C144.162 13.2119 144.37 13.0757 144.598 12.983C144.827 12.8903 145.072 12.843 145.319 12.8438H145.551L143.108 10.4539C142.928 10.2769 142.713 10.1365 142.477 10.0406C142.24 9.94482 141.987 9.89551 141.731 9.89551C141.475 9.89551 141.222 9.94482 140.985 10.0406C140.749 10.1365 140.534 10.2769 140.354 10.4539L137.92 12.837H138.297Z" fill="white"/>
<path d="M147.572 14.8211L146.096 13.377C146.063 13.3903 146.027 13.3973 145.991 13.3976H145.32C144.971 13.3985 144.636 13.5342 144.388 13.7753L142.465 15.6559C142.292 15.8251 142.057 15.9201 141.812 15.9201C141.568 15.9201 141.333 15.8251 141.16 15.6559L139.229 13.7681C138.982 13.5269 138.647 13.391 138.297 13.3901H137.474C137.44 13.3893 137.406 13.3827 137.374 13.3706L135.889 14.8211C135.524 15.1789 135.319 15.6636 135.319 16.1689C135.319 16.6743 135.524 17.159 135.889 17.5167L137.371 18.9669C137.403 18.9545 137.436 18.9479 137.47 18.9474H138.297C138.647 18.9464 138.982 18.8105 139.229 18.5693L141.159 16.6807C141.508 16.3397 142.116 16.3397 142.465 16.6807L144.388 18.5622C144.636 18.8032 144.971 18.939 145.32 18.9398H145.991C146.027 18.9401 146.063 18.9471 146.096 18.9605L147.572 17.5163C147.753 17.3393 147.896 17.1292 147.994 16.898C148.092 16.6667 148.143 16.4188 148.143 16.1685C148.143 15.9182 148.092 15.6703 147.994 15.4391C147.896 15.2078 147.753 14.9977 147.572 14.8207" fill="white"/>
<path d="M153.299 20.8922C153.177 20.8974 153.056 20.9154 152.938 20.9458V21.4165C153.028 21.4475 153.123 21.4631 153.219 21.4626C153.46 21.4626 153.575 21.3831 153.575 21.1752C153.575 20.9796 153.481 20.8922 153.299 20.8922ZM152.857 21.7667V20.8353H152.923L152.93 20.8751C153.053 20.8431 153.179 20.8232 153.306 20.8158C153.394 20.8098 153.482 20.8346 153.553 20.8858C153.634 20.9518 153.662 21.0583 153.662 21.1744C153.662 21.2905 153.621 21.4105 153.507 21.4737C153.42 21.5161 153.324 21.537 153.227 21.5346C153.129 21.5339 153.032 21.5194 152.938 21.4912V21.7651L152.857 21.7667Z" fill="white"/>
<path d="M154.267 20.8901C154.026 20.8901 153.918 20.9641 153.918 21.172C153.918 21.3727 154.024 21.4633 154.267 21.4633C154.509 21.4633 154.614 21.3902 154.614 21.1827C154.614 20.982 154.508 20.8901 154.267 20.8901ZM154.577 21.4633C154.496 21.5198 154.39 21.5361 154.267 21.5361C154.144 21.5361 154.034 21.5186 153.956 21.4633C153.867 21.4025 153.831 21.3043 153.831 21.1775C153.831 21.0507 153.867 20.9521 153.956 20.8901C154.034 20.8349 154.142 20.8174 154.267 20.8174C154.392 20.8174 154.497 20.8349 154.577 20.8901C154.667 20.9521 154.701 21.0531 154.701 21.1759C154.701 21.2988 154.665 21.4025 154.577 21.4633Z" fill="white"/>
<path d="M155.719 21.5169L155.45 20.952H155.445L155.18 21.5169H155.105L154.821 20.8359H154.91L155.149 21.4076H155.155L155.414 20.8359H155.488L155.754 21.4076H155.76L155.992 20.8359H156.081L155.794 21.5169H155.719Z" fill="white"/>
<path d="M156.599 20.8875C156.376 20.8875 156.3 20.9848 156.286 21.126H156.912C156.905 20.9709 156.824 20.8875 156.599 20.8875ZM156.596 21.535C156.462 21.535 156.376 21.5159 156.306 21.4595C156.225 21.3907 156.198 21.2909 156.198 21.1764C156.198 21.062 156.235 20.9511 156.328 20.8851C156.409 20.8352 156.503 20.8112 156.599 20.8163C156.696 20.8105 156.793 20.8335 156.877 20.8823C156.978 20.9483 156.997 21.0643 156.997 21.1963H156.284C156.287 21.3366 156.334 21.4607 156.604 21.4607C156.725 21.4576 156.845 21.4443 156.963 21.4209V21.4925C156.843 21.5167 156.721 21.5307 156.598 21.5342" fill="white"/>
<path d="M157.231 21.5159V20.8349H157.297L157.303 20.8747C157.451 20.8381 157.52 20.8154 157.65 20.8154H157.659V20.891H157.64C157.531 20.891 157.465 20.9057 157.312 20.9446V21.5151L157.231 21.5159Z" fill="white"/>
<path d="M158.131 20.8875C157.908 20.8875 157.832 20.9848 157.818 21.126H158.444C158.437 20.9709 158.355 20.8875 158.131 20.8875ZM158.128 21.535C157.994 21.535 157.908 21.5159 157.839 21.4595C157.757 21.3907 157.73 21.2909 157.73 21.1764C157.73 21.062 157.767 20.9511 157.859 20.8851C157.94 20.8353 158.035 20.8113 158.131 20.8163C158.228 20.8105 158.325 20.8335 158.409 20.8823C158.51 20.9483 158.531 21.0643 158.531 21.1963H157.815C157.818 21.3366 157.865 21.4607 158.135 21.4607C158.256 21.4576 158.376 21.4443 158.495 21.4209V21.4925C158.374 21.5167 158.252 21.5307 158.129 21.5342" fill="white"/>
<path d="M159.42 20.9356C159.33 20.9048 159.235 20.8893 159.139 20.8899C158.898 20.8899 158.784 20.9694 158.784 21.1773C158.784 21.3741 158.878 21.4603 159.059 21.4603C159.181 21.4548 159.302 21.4371 159.42 21.4075V20.9356ZM159.436 21.5168L159.428 21.477C159.305 21.5094 159.179 21.5294 159.052 21.5367C158.964 21.5432 158.876 21.5182 158.806 21.4663C158.724 21.4003 158.697 21.2938 158.697 21.1781C158.697 21.0565 158.737 20.942 158.851 20.88C158.938 20.8366 159.035 20.8153 159.132 20.8179C159.23 20.8193 159.327 20.8337 159.42 20.8609V20.5488H159.502V21.5168H159.436Z" fill="white"/>
<path d="M160.694 20.8927C160.572 20.8979 160.451 20.9159 160.333 20.9463V21.4158C160.423 21.4477 160.518 21.4637 160.614 21.4631C160.855 21.4631 160.969 21.3836 160.969 21.1757C160.969 20.9801 160.876 20.8927 160.694 20.8927ZM160.902 21.475C160.815 21.5174 160.719 21.5383 160.622 21.5359C160.516 21.5352 160.411 21.5179 160.311 21.4846L160.307 21.5168H160.251V20.5488H160.333V20.8736C160.453 20.8434 160.577 20.8245 160.701 20.8172C160.789 20.8111 160.876 20.8359 160.947 20.8871C161.029 20.9531 161.056 21.0596 161.056 21.1757C161.056 21.2918 161.016 21.4118 160.902 21.475Z" fill="white"/>
<path d="M161.164 21.7775V21.7035C161.205 21.7075 161.241 21.7103 161.267 21.7103C161.368 21.7103 161.43 21.6817 161.485 21.57L161.512 21.5159L161.146 20.835H161.24L161.552 21.4229H161.557L161.853 20.835H161.946L161.554 21.5998C161.483 21.7385 161.406 21.7842 161.263 21.7842C161.23 21.7841 161.196 21.7818 161.163 21.7775" fill="white"/>
<path d="M163.069 21.1283H162.799V21.3668H163.069C163.255 21.3668 163.325 21.3466 163.325 21.2476C163.325 21.141 163.228 21.1283 163.067 21.1283H163.069ZM163.018 20.7435H162.798V20.986H163.02C163.203 20.986 163.276 20.9645 163.276 20.8636C163.276 20.7554 163.184 20.7443 163.018 20.7443V20.7435ZM163.438 21.4551C163.338 21.5171 163.218 21.5195 162.999 21.5195H162.587V20.5933H162.99C163.178 20.5933 163.294 20.5956 163.391 20.6525C163.423 20.6712 163.449 20.6982 163.466 20.7306C163.483 20.763 163.49 20.7994 163.487 20.8357C163.487 20.9327 163.447 20.9975 163.338 21.0409V21.046C163.46 21.0731 163.538 21.1339 163.538 21.2647C163.541 21.302 163.533 21.3394 163.515 21.3726C163.498 21.4058 163.471 21.4335 163.438 21.4523" fill="white"/>
<path d="M164.363 21.2314C164.281 21.2246 164.2 21.2206 164.112 21.2206C163.97 21.2206 163.92 21.2489 163.92 21.3125C163.92 21.3761 163.961 21.4039 164.071 21.4039C164.169 21.4007 164.267 21.3874 164.363 21.3641V21.2314ZM164.403 21.5172L164.398 21.4774C164.275 21.5114 164.148 21.5314 164.02 21.5371C163.946 21.5419 163.873 21.5244 163.809 21.487C163.782 21.4646 163.761 21.436 163.748 21.4037C163.735 21.3714 163.73 21.3364 163.734 21.3018C163.738 21.2672 163.751 21.2342 163.771 21.2056C163.791 21.177 163.818 21.1538 163.85 21.138C163.923 21.1042 164.021 21.1014 164.111 21.1014C164.183 21.1014 164.281 21.1054 164.363 21.1109V21.0986C164.363 20.9921 164.291 20.9571 164.095 20.9571C164.02 20.9571 163.927 20.9611 163.839 20.969V20.8315C163.937 20.8235 164.047 20.8184 164.138 20.8184C164.26 20.8184 164.385 20.8275 164.463 20.8816C164.542 20.9356 164.558 21.0139 164.558 21.1149V21.518L164.403 21.5172Z" fill="white"/>
<path d="M165.465 21.5161V21.1405C165.465 21.0164 165.401 20.9719 165.285 20.9719C165.189 20.9761 165.094 20.9905 165.001 21.0149V21.5165H164.806V20.8352H164.965L164.972 20.8785C165.093 20.8436 165.218 20.8228 165.344 20.8165C165.43 20.8098 165.515 20.8348 165.582 20.8865C165.637 20.935 165.658 21.0025 165.658 21.0995V21.5161H165.465Z" fill="white"/>
<path d="M166.207 21.5361C166.118 21.5361 166.02 21.5238 165.948 21.4645C165.863 21.397 165.838 21.2908 165.838 21.1759C165.838 21.0682 165.874 20.9506 165.98 20.8846C166.067 20.8293 166.174 20.8174 166.286 20.8174C166.367 20.8174 166.444 20.8226 166.53 20.8305V20.9764C166.459 20.9696 166.375 20.9645 166.308 20.9645C166.123 20.9645 166.036 21.0209 166.036 21.1775C166.036 21.3242 166.101 21.3878 166.253 21.3878C166.351 21.3847 166.449 21.373 166.545 21.3528V21.4928C166.433 21.5181 166.32 21.5326 166.206 21.5361" fill="white"/>
<path d="M167.121 20.9601C166.936 20.9601 166.854 21.0169 166.854 21.172C166.854 21.327 166.936 21.393 167.121 21.393C167.305 21.393 167.384 21.3377 167.384 21.1827C167.384 21.0277 167.305 20.9601 167.121 20.9601ZM167.454 21.4645C167.369 21.521 167.257 21.5361 167.121 21.5361C166.984 21.5361 166.87 21.5198 166.786 21.4645C166.689 21.4025 166.655 21.3 166.655 21.1775C166.655 21.0551 166.689 20.9506 166.786 20.8885C166.87 20.8333 166.981 20.8174 167.121 20.8174C167.26 20.8174 167.369 20.8333 167.454 20.8885C167.55 20.9506 167.584 21.0547 167.584 21.1759C167.584 21.2972 167.549 21.4025 167.454 21.4645Z" fill="white"/>
<path d="M168.706 21.5358C168.589 21.5358 168.462 21.5167 168.367 21.44C168.254 21.3482 168.219 21.2067 168.219 21.0544C168.219 20.9181 168.264 20.7563 168.411 20.6621C168.525 20.5893 168.667 20.5742 168.81 20.5742C168.915 20.5742 169.023 20.581 169.14 20.5905V20.7563C169.04 20.7483 168.915 20.7416 168.819 20.7416C168.55 20.7416 168.436 20.8414 168.436 21.0544C168.436 21.2675 168.542 21.3685 168.74 21.3685C168.882 21.3637 169.023 21.3452 169.161 21.3132V21.4778C169.011 21.5116 168.859 21.531 168.706 21.5358Z" fill="white"/>
<path d="M169.732 20.9379C169.569 20.9379 169.508 20.9947 169.496 21.0969H169.964C169.959 20.9864 169.892 20.9379 169.732 20.9379ZM169.702 21.5341C169.588 21.5341 169.485 21.5206 169.407 21.4586C169.33 21.3966 169.296 21.2901 169.296 21.174C169.296 21.0702 169.33 20.9542 169.427 20.8866C169.512 20.8274 169.621 20.8154 169.732 20.8154C169.831 20.8154 169.948 20.8262 170.033 20.8842C170.145 20.9609 170.155 21.0798 170.155 21.2197H169.494C169.498 21.3239 169.555 21.391 169.751 21.391C169.875 21.3884 169.999 21.3767 170.122 21.3561V21.4896C169.983 21.5153 169.843 21.5302 169.702 21.5341Z" fill="white"/>
<path d="M171.02 21.5161V21.1405C171.02 21.0164 170.956 20.9719 170.84 20.9719C170.744 20.9761 170.648 20.9905 170.556 21.0149V21.5165H170.361V20.8352H170.52L170.527 20.8785C170.648 20.8436 170.773 20.8228 170.899 20.8165C170.984 20.8098 171.07 20.8348 171.137 20.8865C171.192 20.935 171.213 21.0025 171.213 21.0995V21.5161H171.02Z" fill="white"/>
<path d="M171.767 21.5362C171.673 21.5362 171.588 21.5104 171.541 21.4388C171.503 21.377 171.485 21.3051 171.49 21.2329V20.9777H171.349V20.8362H171.49L171.511 20.6299H171.682V20.8362H171.956V20.9777H171.682V21.1963C171.68 21.2404 171.686 21.2844 171.701 21.3259C171.722 21.3716 171.767 21.3891 171.828 21.3891C171.875 21.3883 171.921 21.3838 171.967 21.3756V21.512C171.901 21.526 171.834 21.5341 171.766 21.5362" fill="white"/>
<path d="M172.146 21.5174V20.8364H172.305L172.312 20.8797C172.423 20.8428 172.539 20.8219 172.656 20.8177C172.665 20.8173 172.673 20.8173 172.681 20.8177V20.9827C172.659 20.9827 172.633 20.9827 172.614 20.9827C172.522 20.9831 172.43 20.9948 172.341 21.0177V21.5205L172.146 21.5174Z" fill="white"/>
<path d="M173.388 21.2314C173.307 21.2246 173.225 21.2206 173.137 21.2206C172.995 21.2206 172.945 21.2489 172.945 21.3125C172.945 21.3761 172.986 21.4039 173.095 21.4039C173.194 21.4007 173.292 21.3874 173.388 21.3641V21.2314ZM173.428 21.5172L173.423 21.4774C173.3 21.5114 173.173 21.5314 173.045 21.5371C172.971 21.5419 172.897 21.5244 172.834 21.487C172.808 21.4678 172.788 21.4427 172.775 21.4141C172.761 21.3854 172.755 21.3539 172.757 21.3224C172.755 21.2836 172.765 21.2452 172.786 21.2123C172.807 21.1793 172.838 21.1534 172.874 21.138C172.947 21.1042 173.045 21.1014 173.135 21.1014C173.208 21.1014 173.306 21.1054 173.387 21.1109V21.0986C173.387 20.9921 173.315 20.9571 173.12 20.9571C173.044 20.9571 172.952 20.9611 172.863 20.969V20.8315C172.961 20.8235 173.071 20.8184 173.162 20.8184C173.284 20.8184 173.409 20.8275 173.487 20.8816C173.566 20.9356 173.582 21.0139 173.582 21.1149V21.518L173.428 21.5172Z" fill="white"/>
<path d="M173.831 20.5488H174.026V21.5168H173.831V20.5488Z" fill="white"/>
</g>
<defs>
<clipPath id="clip0_599_17333">
<rect width="38.7087" height="13.4639" fill="white" transform="translate(135.32 8.97705)"/>
</clipPath>
</defs>
</svg>
